<svg width="40" height="28" viewBox="0 0 40 28" fill="none" xmlns="http://www.w3.org/2000/svg">
<path fill-rule="evenodd" clip-rule="evenodd" d="M7.35007 2.16591C7.35007 2.80982 7.87206 3.33182 8.51598 3.33182H37.2751C37.919 3.33182 38.441 2.80982 38.441 2.16591C38.441 1.522 37.919 1 37.2751 1H8.51598C7.87206 1 7.35007 1.522 7.35007 2.16591ZM1.59522 13.9111C1.59698 14.555 2.12043 15.0756 2.76436 15.0738L31.5234 14.9941C32.1673 14.9924 32.6879 14.4689 32.6861 13.825C32.6843 13.1811 32.1608 12.6605 31.5169 12.6623L2.75789 12.742C2.114 12.7438 1.59346 13.2672 1.59522 13.9111ZM7.35007 25.4841C7.35007 26.128 7.87206 26.65 8.51598 26.65H37.2751C37.919 26.65 38.441 26.128 38.441 25.4841C38.441 24.8402 37.919 24.3182 37.2751 24.3182H8.51598C7.87206 24.3182 7.35007 24.8402 7.35007 25.4841Z" fill="#FFB700" stroke="#FFB700" stroke-width="2"/>
</svg>
