<svg width="27" height="31" viewBox="0 0 27 31" fill="none" xmlns="http://www.w3.org/2000/svg">
<path d="M1.0012 18.1895V17.8701C1.04805 16.9253 1.35087 16.0099 1.87844 15.2182C2.75656 14.2672 3.35768 13.1017 3.61874 11.8441C3.61874 10.8722 3.61874 9.88635 3.70364 8.91442C4.14225 4.2352 8.76895 1 13.3391 1H13.4523C18.0224 1 22.649 4.2352 23.1018 8.91442C23.1866 9.88635 23.1018 10.8722 23.1725 11.8441C23.437 13.1046 24.0376 14.2736 24.9129 15.232C25.4443 16.0167 25.7476 16.9289 25.7901 17.8701V18.1757C25.8217 19.445 25.3845 20.6828 24.5591 21.6608C23.4685 22.8043 21.9885 23.5156 20.3993 23.6602C15.7394 24.1601 11.0377 24.1601 6.37778 23.6602C4.79041 23.5094 3.31256 22.799 2.21801 21.6608C1.40541 20.6821 0.974094 19.4517 1.0012 18.1895Z" stroke="#200E32" stroke-width="1.5" stroke-linecap="round" stroke-linejoin="round"/>
<path opacity="0.4" d="M9.83008 28.4922C10.5582 29.4062 11.6274 29.9975 12.8011 30.1358C13.9749 30.2739 15.1563 29.9472 16.084 29.2281C16.3692 29.0155 16.6259 28.7682 16.848 28.4922" stroke="#200E32" stroke-width="1.5" stroke-linecap="round" stroke-linejoin="round"/>
</svg>
