<svg width="59" height="59" viewBox="0 0 59 59" fill="none" xmlns="http://www.w3.org/2000/svg">
<circle cx="29.5" cy="29.5" r="29.5" fill="#FFF7E2"/>
<circle cx="29.5" cy="29.5" r="21.5" fill="#FFEFC5"/>
<path opacity="0.4" d="M29.271 31.9102L25.7048 35.4764C25.3122 35.1274 24.9305 34.7675 24.5597 34.3967C23.4364 33.2625 22.4222 32.0738 21.517 30.8305C20.6227 29.5873 19.9029 28.344 19.3795 27.1117C18.856 25.8684 18.5942 24.6797 18.5942 23.5455C18.5942 22.8039 18.7251 22.095 18.9868 21.4407C19.2486 20.7754 19.663 20.1647 20.241 19.6194C20.939 18.9323 21.7024 18.5942 22.5094 18.5942C22.8148 18.5942 23.1201 18.6597 23.3928 18.7905C23.6763 18.9214 23.9272 19.1177 24.1235 19.4013L26.6536 22.9675C26.8499 23.2401 26.9917 23.4909 27.0899 23.7309C27.188 23.9599 27.2425 24.1889 27.2425 24.3961C27.2425 24.6579 27.1662 24.9196 27.0135 25.1704C26.8717 25.4213 26.6645 25.683 26.4028 25.9447L25.5739 26.8063C25.454 26.9263 25.3995 27.068 25.3995 27.2425C25.3995 27.3298 25.4104 27.4061 25.4322 27.4934C25.4649 27.5806 25.4976 27.6461 25.5194 27.7115C25.7157 28.0714 26.0538 28.5403 26.5337 29.1074C27.0244 29.6745 27.5479 30.2525 28.115 30.8305C28.5076 31.2122 28.8893 31.583 29.271 31.9102Z" fill="#FFB700"/>
<path d="M40.3728 36.4024C40.3728 36.7078 40.3183 37.024 40.2092 37.3294C40.1765 37.4166 40.1438 37.5039 40.1001 37.5911C39.9147 37.9837 39.6748 38.3545 39.3585 38.7035C38.8242 39.2924 38.2352 39.7178 37.57 39.9904C37.5591 39.9904 37.5482 40.0013 37.5373 40.0013C36.8938 40.2631 36.1959 40.4048 35.4434 40.4048C34.331 40.4048 33.1422 40.1431 31.8881 39.6087C30.6339 39.0743 29.3797 38.3545 28.1365 37.4494C27.7112 37.1331 27.2858 36.8168 26.8823 36.4787L30.4485 32.9125C30.7539 33.1416 31.0265 33.3161 31.2555 33.436C31.3101 33.4578 31.3755 33.4906 31.4518 33.5233C31.5391 33.556 31.6263 33.5669 31.7245 33.5669C31.9099 33.5669 32.0517 33.5015 32.1716 33.3815L33.0005 32.5636C33.2731 32.2909 33.5348 32.0837 33.7857 31.9528C34.0365 31.8002 34.2873 31.7238 34.56 31.7238C34.7672 31.7238 34.9853 31.7674 35.2252 31.8656C35.4652 31.9637 35.716 32.1055 35.9887 32.2909L39.5985 34.8538C39.882 35.0501 40.0783 35.2791 40.1983 35.5518C40.3073 35.8244 40.3728 36.097 40.3728 36.4024Z" fill="#FFB700"/>
</svg>
