<svg width="20" height="20" viewBox="0 0 20 20" fill="none" xmlns="http://www.w3.org/2000/svg">
<path opacity="0.4" d="M9.79 12.21L6.52 15.48C6.16 15.16 5.81 14.83 5.47 14.49C4.44 13.45 3.51 12.36 2.68 11.22C1.86 10.08 1.2 8.94 0.72 7.81C0.24 6.67 0 5.58 0 4.54C0 3.86 0.12 3.21 0.36 2.61C0.6 2 0.98 1.44 1.51 0.94C2.15 0.31 2.85 0 3.59 0C3.87 0 4.15 0.0600001 4.4 0.18C4.66 0.3 4.89 0.48 5.07 0.74L7.39 4.01C7.57 4.26 7.7 4.49 7.79 4.71C7.88 4.92 7.93 5.13 7.93 5.32C7.93 5.56 7.86 5.8 7.72 6.03C7.59 6.26 7.4 6.5 7.16 6.74L6.4 7.53C6.29 7.64 6.24 7.77 6.24 7.93C6.24 8.01 6.25 8.08 6.27 8.16C6.3 8.24 6.33 8.3 6.35 8.36C6.53 8.69 6.84 9.12 7.28 9.64C7.73 10.16 8.21 10.69 8.73 11.22C9.09 11.57 9.44 11.91 9.79 12.21Z" fill="#1F1F1F"/>
<path d="M19.9716 16.3291C19.9716 16.6091 19.9216 16.8991 19.8216 17.1791C19.7916 17.2591 19.7616 17.3391 19.7216 17.4191C19.5516 17.7791 19.3316 18.1191 19.0416 18.4391C18.5516 18.9791 18.0116 19.3691 17.4016 19.6191C17.3916 19.6191 17.3816 19.6291 17.3716 19.6291C16.7816 19.8691 16.1416 19.9991 15.4516 19.9991C14.4316 19.9991 13.3416 19.7591 12.1916 19.2691C11.0416 18.7791 9.89155 18.1191 8.75155 17.2891C8.36155 16.9991 7.97156 16.7091 7.60156 16.3991L10.8716 13.1291C11.1516 13.3391 11.4016 13.4991 11.6116 13.6091C11.6616 13.6291 11.7216 13.6591 11.7916 13.6891C11.8716 13.7191 11.9516 13.7291 12.0416 13.7291C12.2116 13.7291 12.3416 13.6691 12.4516 13.5591L13.2116 12.8091C13.4616 12.5591 13.7016 12.3691 13.9316 12.2491C14.1616 12.1091 14.3916 12.0391 14.6416 12.0391C14.8316 12.0391 15.0316 12.0791 15.2516 12.1691C15.4716 12.2591 15.7016 12.3891 15.9516 12.5591L19.2616 14.9091C19.5216 15.0891 19.7016 15.2991 19.8116 15.5491C19.9116 15.7991 19.9716 16.0491 19.9716 16.3291Z" fill="#1F1F1F"/>
</svg>
