<svg width="66" height="57" viewBox="0 0 66 57" fill="none" xmlns="http://www.w3.org/2000/svg">
<rect width="65.55" height="57" rx="13.25" fill="#FF0000" fill-opacity="0.08"/>
<g clip-path="url(#clip0_76_129)">
<path d="M44.75 40.5H24.9167C24.1431 40.5 23.4013 40.1927 22.8543 39.6457C22.3073 39.0987 22 38.3569 22 37.5833V17.75C22 17.2859 21.8156 16.8408 21.4874 16.5126C21.1592 16.1844 20.7141 16 20.25 16C19.7859 16 19.3408 16.1844 19.0126 16.5126C18.6844 16.8408 18.5 17.2859 18.5 17.75V37.5833C18.5019 39.2846 19.1785 40.9156 20.3814 42.1186C21.5844 43.3215 23.2154 43.9981 24.9167 44H44.75C45.2141 44 45.6592 43.8156 45.9874 43.4874C46.3156 43.1592 46.5 42.7141 46.5 42.25C46.5 41.7859 46.3156 41.3408 45.9874 41.0126C45.6592 40.6844 45.2141 40.5 44.75 40.5Z" fill="#FF0000"/>
<path d="M44.7502 35.2604H41.1498C40.9191 35.2604 40.6936 35.1919 40.5018 35.0637C40.31 34.9355 40.1605 34.7534 40.0722 34.5402C39.9839 34.3271 39.9608 34.0925 40.0058 33.8662C40.0508 33.64 40.1619 33.4321 40.325 33.2689L41.1802 32.4149L36.9953 28.2324C36.9412 28.1781 36.8768 28.135 36.8059 28.1056C36.735 28.0762 36.6591 28.0611 36.5823 28.0611C36.5056 28.0611 36.4296 28.0762 36.3588 28.1056C36.2879 28.135 36.2235 28.1781 36.1693 28.2324L35.971 28.4308C35.1933 29.1737 34.1591 29.5883 33.0835 29.5883C32.0079 29.5883 30.9737 29.1737 30.196 28.4308L25.4127 23.6474C25.2455 23.486 25.1122 23.2929 25.0205 23.0794C24.9288 22.8659 24.8805 22.6363 24.8785 22.4039C24.8765 22.1715 24.9207 21.9411 25.0087 21.726C25.0967 21.5109 25.2267 21.3156 25.391 21.1512C25.5553 20.9869 25.7507 20.857 25.9658 20.769C26.1808 20.681 26.4113 20.6367 26.6436 20.6387C26.876 20.6408 27.1056 20.689 27.3191 20.7808C27.5326 20.8725 27.7257 21.0058 27.8872 21.1729L32.6705 25.9563C32.7247 26.0106 32.7891 26.0537 32.8599 26.0831C32.9308 26.1125 33.0068 26.1276 33.0835 26.1276C33.1602 26.1276 33.2362 26.1125 33.3071 26.0831C33.3779 26.0537 33.4423 26.0106 33.4965 25.9563L33.6948 25.7579C34.4728 25.0155 35.5069 24.6013 36.5823 24.6013C37.6577 24.6013 38.6918 25.0155 39.4698 25.7579L43.6535 29.9404L44.5075 29.0853C44.6706 28.9218 44.8786 28.8103 45.105 28.7651C45.3315 28.7199 45.5663 28.7429 45.7797 28.8312C45.9931 28.9195 46.1755 29.0692 46.3037 29.2613C46.432 29.4533 46.5004 29.6792 46.5002 29.9101V33.5104C46.5002 33.9746 46.3158 34.4197 45.9876 34.7479C45.6594 35.0761 45.2143 35.2604 44.7502 35.2604Z" fill="#FF0000"/>
</g>
<defs>
<clipPath id="clip0_76_129">
<rect width="28" height="28" fill="white" transform="translate(18.5 16)"/>
</clipPath>
</defs>
</svg>
