<svg width="80" height="80" viewBox="0 0 80 80" fill="none" xmlns="http://www.w3.org/2000/svg">
<path d="M28.7083 23.4613V41.9583C28.7083 42.5855 28.9203 43.1096 29.3443 43.5307C29.7683 43.9517 30.2939 44.1637 30.9211 44.1667C31.5483 44.1696 32.0724 43.9576 32.4934 43.5307C32.9145 43.1037 33.125 42.5796 33.125 41.9583V23.4613L40.8365 31.1463C41.2487 31.5586 41.7507 31.7794 42.3426 31.8088C42.9374 31.8383 43.4836 31.6027 43.9812 31.1022C44.4405 30.6458 44.6702 30.1305 44.6702 29.5563C44.6702 28.9822 44.4346 28.4625 43.9635 27.9972L33.4342 17.4723C32.7334 16.7598 31.9001 16.4035 30.9343 16.4035C29.9686 16.4035 29.1294 16.7598 28.4168 17.4723L17.8698 27.9972C17.4576 28.4095 17.2324 28.91 17.1941 29.4989C17.1558 30.0878 17.3869 30.634 17.8875 31.1375C18.3468 31.5968 18.8577 31.8309 19.4201 31.8397C19.9854 31.8486 20.511 31.6174 20.9968 31.1463L28.7083 23.4613ZM46.375 56.0431L38.6635 48.3537C38.2513 47.9414 37.7493 47.7206 37.1574 47.6912C36.5626 47.6617 36.0164 47.8973 35.5188 48.3978C35.0624 48.8572 34.8343 49.3724 34.8343 49.9437C34.8343 50.5149 35.0698 51.0361 35.5409 51.5072L46.0835 62.0542C46.7872 62.7667 47.622 63.123 48.5878 63.123C49.5535 63.123 50.3927 62.7667 51.1053 62.0542L61.6302 51.5072C62.0424 51.0949 62.2676 50.5914 62.3059 49.9967C62.3442 49.4019 62.1131 48.8572 61.6125 48.3625C61.1532 47.9032 60.6423 47.6691 60.0799 47.6603C59.5146 47.6514 58.989 47.8826 58.5032 48.3537L50.7917 56.0387V37.5417C50.7917 36.9145 50.5797 36.3904 50.1557 35.9693C49.7317 35.5483 49.2061 35.3363 48.5789 35.3333C47.9517 35.3304 47.4276 35.5424 47.0066 35.9693C46.5855 36.3963 46.375 36.9204 46.375 37.5417V56.0431ZM39.7632 79.5C34.2689 79.5 29.1014 78.4577 24.2607 76.373C19.423 74.2854 15.2139 71.4528 11.6335 67.8753C8.05305 64.2978 5.21903 60.0932 3.13142 55.2613C1.04381 50.4295 0 45.2635 0 39.7633C0 34.263 1.04381 29.0955 3.13142 24.2607C5.21608 19.423 8.04422 15.2139 11.6158 11.6335C15.1874 8.05305 19.3936 5.21903 24.2343 3.13142C29.0749 1.04381 34.2424 0 39.7367 0C45.2311 0 50.3986 1.04381 55.2393 3.13142C60.077 5.21608 64.286 8.04569 67.8665 11.6202C71.4469 15.1948 74.281 19.4009 76.3686 24.2387C78.4562 29.0764 79.5 34.2424 79.5 39.7367C79.5 45.2311 78.4577 50.3986 76.373 55.2392C74.2883 60.0799 71.4558 64.289 67.8753 67.8665C64.2949 71.444 60.0902 74.278 55.2613 76.3686C50.4324 78.4591 45.2664 79.5029 39.7632 79.5Z" fill="#EC6426"/>
</svg>
