<svg width="66" height="57" viewBox="0 0 66 57" fill="none" xmlns="http://www.w3.org/2000/svg">
<rect width="65.55" height="57" rx="13.25" fill="#2DA916" fill-opacity="0.08"/>
<g clip-path="url(#clip0_76_122)">
<path d="M43.75 38.5H23.9167C23.1431 38.5 22.4013 38.1927 21.8543 37.6457C21.3073 37.0987 21 36.3569 21 35.5833V15.75C21 15.2859 20.8156 14.8408 20.4874 14.5126C20.1592 14.1844 19.7141 14 19.25 14C18.7859 14 18.3408 14.1844 18.0126 14.5126C17.6844 14.8408 17.5 15.2859 17.5 15.75V35.5833C17.5019 37.2846 18.1785 38.9156 19.3814 40.1186C20.5844 41.3215 22.2154 41.9981 23.9167 42H43.75C44.2141 42 44.6592 41.8156 44.9874 41.4874C45.3156 41.1592 45.5 40.7141 45.5 40.25C45.5 39.7859 45.3156 39.3408 44.9874 39.0126C44.6592 38.6844 44.2141 38.5 43.75 38.5Z" fill="#2DA916"/>
<path d="M43.7502 18.6387H40.1498C39.9191 18.6387 39.6936 18.7072 39.5018 18.8354C39.31 18.9636 39.1605 19.1458 39.0722 19.3589C38.9839 19.5721 38.9608 19.8066 39.0058 20.0329C39.0508 20.2592 39.1619 20.467 39.325 20.6302L40.1802 21.4842L35.9953 25.6667C35.9412 25.721 35.8768 25.7641 35.8059 25.7935C35.735 25.8229 35.6591 25.838 35.5823 25.838C35.5056 25.838 35.4296 25.8229 35.3588 25.7935C35.2879 25.7641 35.2235 25.721 35.1693 25.6667L34.971 25.4683C34.1933 24.7254 33.1591 24.3108 32.0835 24.3108C31.0079 24.3108 29.9737 24.7254 29.196 25.4683L24.4127 30.2517C24.2455 30.4131 24.1122 30.6062 24.0205 30.8197C23.9288 31.0332 23.8805 31.2629 23.8785 31.4952C23.8765 31.7276 23.9207 31.958 24.0087 32.1731C24.0967 32.3882 24.2267 32.5836 24.391 32.7479C24.5553 32.9122 24.7507 33.0421 24.9658 33.1301C25.1808 33.2181 25.4113 33.2624 25.6436 33.2604C25.876 33.2583 26.1056 33.2101 26.3191 33.1183C26.5326 33.0266 26.7257 32.8933 26.8872 32.7262L31.6705 27.9428C31.7247 27.8885 31.7891 27.8454 31.8599 27.816C31.9308 27.7866 32.0068 27.7715 32.0835 27.7715C32.1602 27.7715 32.2362 27.7866 32.3071 27.816C32.3779 27.8454 32.4423 27.8885 32.4965 27.9428L32.6948 28.1412C33.4728 28.8836 34.5069 29.2978 35.5823 29.2978C36.6577 29.2978 37.6918 28.8836 38.4698 28.1412L42.6535 23.9587L43.5075 24.8138C43.6706 24.9774 43.8786 25.0888 44.105 25.134C44.3315 25.1792 44.5663 25.1562 44.7797 25.0679C44.9931 24.9796 45.1755 24.8299 45.3037 24.6378C45.432 24.4458 45.5004 24.22 45.5002 23.989V20.3887C45.5002 19.9245 45.3158 19.4794 44.9876 19.1512C44.6594 18.823 44.2143 18.6387 43.7502 18.6387Z" fill="#2DA916"/>
</g>
<defs>
<clipPath id="clip0_76_122">
<rect width="28" height="28" fill="white" transform="translate(17.5 14)"/>
</clipPath>
</defs>
</svg>
