<svg width="48" height="48" viewBox="0 0 48 48" fill="none" xmlns="http://www.w3.org/2000/svg">
<path d="M20.5 8C20.5 7.3814 20.1204 6.8262 19.5438 6.602C18.9673 6.3778 18.3123 6.5304 17.8943 6.9864L6.8943 18.9864C6.49234 19.425 6.38748 20.0594 6.627 20.604C6.86654 21.1484 7.40518 21.5 8.00004 21.5L40 21.5C40.8284 21.5 41.5 20.8284 41.5 20C41.5 19.1716 40.8284 18.5 40 18.5L20.5 18.5V8Z" fill="#FFB700"/>
<path d="M27.5 39.9999L27.5 29.4999L8 29.4999C7.17158 29.4999 6.5 28.8284 6.5 28C6.5 27.1716 7.17158 26.5 8 26.5L40 26.5C40.5948 26.5 41.1334 26.8514 41.373 27.396C41.6126 27.9404 41.5076 28.575 41.1058 29.0135L30.1058 41.0135C29.6878 41.4695 29.0328 41.6222 28.4562 41.3979C27.8798 41.1737 27.5 40.6185 27.5 39.9999Z" fill="#030303"/>
</svg>
