<svg width="66" height="57" viewBox="0 0 66 57" fill="none" xmlns="http://www.w3.org/2000/svg">
<rect width="65.55" height="57" rx="13.25" fill="#FFB700" fill-opacity="0.09"/>
<path opacity="0.4" d="M45.6795 24.8188V35.154C45.6795 38.3266 43.1027 40.8896 39.9301 40.8896H23.7207C20.5481 40.8896 17.9712 38.3266 17.9712 35.154V24.8188H45.6795Z" fill="#FFB700"/>
<path d="M45.6795 22.7939V24.8166H17.9712V22.7939C17.9712 19.6213 20.5481 17.0583 23.7207 17.0583H39.9301C43.1027 17.0583 45.6795 19.6213 45.6795 22.7939Z" fill="#FFB700"/>
<path d="M26.2835 36.2485H23.5127C22.9447 36.2485 22.4736 35.7774 22.4736 35.2094C22.4736 34.6414 22.9447 34.1703 23.5127 34.1703H26.2835C26.8516 34.1703 27.3226 34.6414 27.3226 35.2094C27.3226 35.7774 26.8516 36.2485 26.2835 36.2485Z" fill="#FFB700"/>
<path d="M35.2887 36.2485H29.7471C29.179 36.2485 28.708 35.7774 28.708 35.2094C28.708 34.6414 29.179 34.1703 29.7471 34.1703H35.2887C35.8568 34.1703 36.3278 34.6414 36.3278 35.2094C36.3278 35.7774 35.8568 36.2485 35.2887 36.2485Z" fill="#FFB700"/>
</svg>
